name C:\Users\Nicos\Documents\OpenSimProjects\SprintingProject\Study1\PredictiveResults\IC_pred_Sprinting_optimum_26-October-2023__23-37-47___IKTD_Minus_4_p02_maxVel_01.mot
datacolumns 38
datarows 12
range 0.21319868 0.22368043
endheader
                time	/jointset/ground_pelvis/pelvis_tilt/value	/jointset/ground_pelvis/pelvis_list/value	/jointset/ground_pelvis/pelvis_rotation/value	/jointset/ground_pelvis/pelvis_tx/value	/jointset/ground_pelvis/pelvis_ty/value	/jointset/ground_pelvis/pelvis_tz/value	/jointset/hip_r/hip_flexion_r/value	/jointset/hip_r/hip_adduction_r/value	/jointset/hip_r/hip_rotation_r/value	/jointset/knee_r/knee_angle_r/value	/jointset/ankle_r/ankle_angle_r/value	/jointset/subtalar_r/subtalar_angle_r/value	/jointset/mtp_r/mtp_angle_r/value	/jointset/hip_l/hip_flexion_l/value	/jointset/hip_l/hip_adduction_l/value	/jointset/hip_l/hip_rotation_l/value	/jointset/knee_l/knee_angle_l/value	/jointset/ankle_l/ankle_angle_l/value	/jointset/subtalar_l/subtalar_angle_l/value	/jointset/mtp_l/mtp_angle_l/value	/jointset/back/lumbar_extension/value	/jointset/back/lumbar_bending/value	/jointset/back/lumbar_rotation/value	/jointset/acromial_r/arm_flex_r/value	/jointset/acromial_r/arm_add_r/value	/jointset/acromial_r/arm_rot_r/value	/jointset/elbow_r/elbow_flex_r/value	/jointset/radioulnar_r/pro_sup_r/value	/jointset/radius_hand_r/wrist_flex_r/value	/jointset/radius_hand_r/wrist_dev_r/value	/jointset/acromial_l/arm_flex_l/value	/jointset/acromial_l/arm_add_l/value	/jointset/acromial_l/arm_rot_l/value	/jointset/elbow_l/elbow_flex_l/value	/jointset/radioulnar_l/pro_sup_l/value	/jointset/radius_hand_l/wrist_flex_l/value	/jointset/radius_hand_l/wrist_dev_l/value	
          0.21319868	         -3.89458580	          6.49387727	         -7.75492348	          1.85701973	          0.99820162	          0.31312321	          3.07271520	        -13.41342266	          8.51412358	        -88.64137206	        -23.27678843	        -14.79076012	        -10.46798711	         59.43041923	         -3.90646885	         -1.88589544	        -36.99425297	        -23.47336818	        -28.33916865	         11.64844307	        -21.19506718	        -10.80345205	          9.73582109	         55.27058856	        -19.93947174	        -10.68160219	         97.85509164	         86.55182209	        -19.42206975	          6.22845004	        -57.19018499	        -13.08619533	         -8.94815921	         70.17668591	         56.05242216	        -23.41196672	          6.20566472	
          0.21468131	         -3.93374101	          6.45787048	         -7.36924663	          1.87453497	          0.99879801	          0.31306089	          3.55453857	        -13.26333922	          8.31126741	        -89.53985115	        -22.90338509	        -14.88276488	        -10.46778607	         58.78033605	         -3.49739669	         -1.48313168	        -36.18253687	        -23.66440898	        -28.68757104	         11.24123663	        -21.25398499	        -10.82894090	          9.64026707	         53.32756925	        -20.57991499	        -11.33048690	         97.71400938	         86.77557293	        -19.58847813	          6.18274784	        -56.53485860	        -13.74699534	         -9.62951657	         71.06265583	         56.61209941	        -23.63087331	          6.15996871	
          0.21468131	         -3.93374101	          6.45787048	         -7.36924663	          1.87453497	          0.99879801	          0.31306089	          3.55453857	        -13.26333922	          8.31126741	        -89.53985115	        -22.90338509	        -14.88276488	        -10.46778607	         58.78033605	         -3.49739669	         -1.48313168	        -36.18253687	        -23.66440898	        -28.68757104	         11.24123663	        -21.25398499	        -10.82894090	          9.64026707	         53.32756925	        -20.57991499	        -11.33048690	         97.71400938	         86.77557293	        -19.58847813	          6.18274784	        -56.53485860	        -13.74699534	         -9.62951657	         71.06265583	         56.61209941	        -23.63087331	          6.15996871	
          0.21532878	         -3.95247049	          6.44065854	         -7.20050693	          1.88218794	          0.99904929	          0.31303122	          3.77154403	        -13.19765781	          8.22249255	        -89.93220318	        -22.73903613	        -14.92317571	        -10.46839675	         58.49585962	         -3.32200764	         -1.30599130	        -35.83696924	        -23.74569814	        -28.83884064	         11.05738595	        -21.27650625	        -10.83706510	          9.59880646	         52.47314885	        -20.85601780	        -11.59465288	         97.62295132	         86.87215646	        -19.65963620	          6.16278736	        -56.24168509	        -14.03556866	         -9.92450923	         71.46602578	         56.86117342	        -23.72410120	          6.14001023	
          0.21737451	         -4.01830578	          6.38057557	         -6.66767724	          1.90638137	          0.99980425	          0.31292861	          4.48485927	        -12.99010693	          7.94315823	        -91.17241398	        -22.21502606	        -15.05119413	        -10.47155086	         57.59461458	         -2.78283163	         -0.74572362	        -34.77885738	        -23.99734580	        -29.31207435	         10.45457910	        -21.33451635	        -10.85106324	          9.46889023	         49.75768879	        -21.71445150	        -12.33391955	         97.22140643	         87.17540745	        -19.87717401	          6.09971001	        -55.28514873	        -14.94735071	        -10.83584264	         72.80600865	         57.66705235	        -24.00827719	          6.07693443	
          0.21885714	         -4.07281356	          6.33190915	         -6.28272763	          1.92392638	          1.00031278	          0.31284653	          5.02923766	        -12.84010886	          7.74298631	        -92.07191254	        -21.83028775	        -15.14445628	        -10.47352445	         56.93924726	         -2.40754121	         -0.34314184	        -34.04190369	        -24.17749270	        -29.64967438	          9.99961849	        -21.36343057	        -10.85043490	          9.37570610	         47.78050199	        -22.31800622	        -12.77952682	         96.82793693	         87.39437257	        -20.02686637	          6.05400694	        -54.55769336	        -15.60814975	        -11.46713481	         73.82742937	         58.26896330	        -24.20352429	          6.03123673	
          0.21885714	         -4.07281356	          6.33190915	         -6.28272763	          1.92392638	          1.00031278	          0.31284653	          5.02923766	        -12.84010886	          7.74298631	        -92.07191254	        -21.83028775	        -15.14445628	        -10.47352445	         56.93924726	         -2.40754121	         -0.34314184	        -34.04190369	        -24.17749270	        -29.64967438	          9.99961849	        -21.36343057	        -10.85043490	          9.37570610	         47.78050199	        -22.31800622	        -12.77952682	         96.82793693	         87.39437257	        -20.02686637	          6.05400694	        -54.55769336	        -15.60814975	        -11.46713481	         73.82742937	         58.26896330	        -24.20352429	          6.03123673	
          0.21950460	         -4.09852685	          6.30937888	         -6.11515065	          1.93159081	          1.00052428	          0.31280882	          5.27446376	        -12.77482542	          7.65644738	        -92.46492128	        -21.66083134	        -15.18537485	        -10.47394607	         56.65248884	         -2.24803090	         -0.16928160	        -33.72739658	        -24.25624782	        -29.79545864	          9.79688223	        -21.37243676	        -10.84739642	          9.33525069	         46.91613167	        -22.57511934	        -12.95104804	         96.63065736	         87.48995657	        -20.08985943	          6.03404631	        -54.22950893	        -15.89671040	        -11.73266587	         74.28351032	         58.53648679	        -24.28574791	          6.01127819	
          0.22155033	         -4.18851880	          6.23339236	         -5.58844922	          1.95581701	          1.00114921	          0.31268264	          6.08076204	        -12.56982509	          7.38742594	        -93.70723450	        -21.11861056	        -15.31610735	        -10.47397929	         55.74472163	         -1.76253493	          0.36817296	        -32.76029634	        -24.50806596	        -30.24885376	          9.14320422	        -21.38509772	        -10.82689380	          9.20849749	         44.18609238	        -23.35071834	        -13.41719317	         95.91374249	         87.79281300	        -20.27836134	          5.97096889	        -53.13987463	        -16.80852819	        -12.51992204	         75.73430397	         59.40007850	        -24.53255498	          5.94820116	
          0.22303296	         -4.26157879	          6.17416399	         -5.20937083	          1.97338349	          1.00156091	          0.31258508	          6.69443034	        -12.42304319	          7.19671341	        -94.60776985	        -20.71825040	        -15.41315469	        -10.46920845	         55.08426394	         -1.42836230	          0.74282089	        -32.08235485	        -24.69504547	        -30.56988419	          8.65938884	        -21.37976577	        -10.80227740	          9.11728032	         42.21305083	        -23.86879245	        -13.69902099	         95.31275239	         88.01272595	        -20.40402132	          5.92526515	        -52.29632779	        -17.46924407	        -13.03512505	         76.78889721	         60.04294186	        -24.69831367	          5.90250476	
          0.22303296	         -4.26157879	          6.17416399	         -5.20937083	          1.97338349	          1.00156091	          0.31258508	          6.69443034	        -12.42304319	          7.19671341	        -94.60776985	        -20.71825040	        -15.41315469	        -10.46920845	         55.08426394	         -1.42836230	          0.74282089	        -32.08235485	        -24.69504547	        -30.56988419	          8.65938884	        -21.37976577	        -10.80227740	          9.11728032	         42.21305083	        -23.86879245	        -13.69902099	         95.31275239	         88.01272595	        -20.40402132	          5.92526515	        -52.29632779	        -17.46924407	        -13.03512505	         76.78889721	         60.04294186	        -24.69831367	          5.90250476	
          0.22368043	         -4.29543701	          6.14732527	         -5.04451400	          1.98105694	          1.00172980	          0.31254105	          6.96999809	        -12.35958048	          7.11456337	        -95.00098812	        -20.54120402	        -15.45635974	        -10.46512280	         54.79494128	         -1.28710969	          0.90156926	        -31.79175234	        -24.77823422	        -30.70762036	          8.44602394	        -21.37372821	        -10.78914616	          9.07754352	         41.35396636	        -24.08084949	        -13.81226381	         95.03089849	         88.10869426	        -20.45575823	          5.90530420	        -51.91286373	        -17.75771964	        -13.24393599	         77.24909532	         60.32796603	        -24.76705239	          5.88254403	
